<?xml version='1.0' encoding='UTF-8'?>
<svg viewBox="-2.2857 0 32.0007 32" xmlns="http://www.w3.org/2000/svg" xmlns:xlink="http://www.w3.org/1999/xlink">
  <g transform="translate(0, 1.19209289550781E-06)">
    <g transform="matrix(1.14285719394684, 0, 0, 1.14285719394684, 0, 0)">
      <g transform="translate(-1.9073486328125E-06, -1.43051147460938E-06)">
        <g transform="matrix(0.875000715255737, 0, 0, 0.875000715255737, 0, 0)">
          <g transform="translate(0, 1.19209289550781E-06)">
            <g transform="matrix(1.14285719394684, 0, 0, 1.14285719394684, 0, 0)">
              <g transform="translate(0, 0)">
                <g transform="translate(-3.814697265625E-06, 0)">
                  <g transform="matrix(0.875000715255737, 0, 0, 0.875000715255737, 0, 0)">
                    <g transform="translate(1.9073486328125E-06, -7.15255737304688E-07)">
                      <g transform="matrix(1.14285314083099, 0, 0, 1.14285314083099, 0, 0)">
                        <g transform="translate(0, 4.76837158203125E-07)">
                          <g transform="translate(0, 4.76837158203125E-07)">
                            <g transform="translate(0, -1.43051147460938E-06)">
                              <g transform="matrix(0.875000715255737, 0, 0, 0.875000715255737, 0, 0)">
                                <g transform="translate(0, 7.15255737304688E-07)">
                                  <g transform="matrix(1.14285719394684, 0, 0, 1.14285719394684, 0, 0)">
                                    <g transform="translate(1.9073486328125E-06, 4.76837158203125E-07)">
                                      <g transform="matrix(0.875000715255737, 0, 0, 0.875000715255737, 0, 0)">
                                        <g transform="translate(3.814697265625E-06, -1.19209289550781E-06)">
                                          <g transform="matrix(1.14285719394684, 0, 0, 1.14285719394684, 0, 0)">
                                            <g transform="translate(-1.9073486328125E-06, 2.38418579101563E-07)">
                                              <g transform="matrix(0.875000715255737, 0, 0, 0.875000715255737, 0, 0)">
                                                <g transform="translate(7.62939453125E-06, 7.15255737304688E-07)">
                                                  <g transform="matrix(1.14285719394684, 0, 0, 1.14285719394684, 0, 0)">
                                                    <g transform="translate(2, -2)">
                                                      <g id="Layer_1" transform="translate(-2, -16) rotate(90, 6, 22)" style="enable-background:new 0 0 32 32">
                                                        <g id="BarChart">
                                                          <rect x="2" y="16" width="8" height="12" fill="#1177D7" class="Blue" />
                                                        </g>
                                                      </g>
                                                    </g>
                                                  </g>
                                                </g>
                                              </g>
                                            </g>
                                          </g>
                                        </g>
                                      </g>
                                    </g>
                                  </g>
                                </g>
                              </g>
                            </g>
                          </g>
                        </g>
                      </g>
                    </g>
                  </g>
                </g>
              </g>
            </g>
          </g>
        </g>
      </g>
    </g>
  </g>
  <g transform="translate(0, 2.21862793026162E-06)">
    <g transform="matrix(1.14285719394684, 0, 0, 1.14285719394684, 0, 0)">
      <g transform="translate(-1.9073486328125E-06, -9.5367431640625E-07)">
        <g transform="matrix(0.875000715255737, 0, 0, 0.875000715255737, 0, 0)">
          <g transform="translate(3.814697265625E-06, 2.21862793026162E-06)">
            <g transform="matrix(1.14285719394684, 0, 0, 1.14285719394684, 0, 0)">
              <g transform="translate(0, 0)">
                <g transform="translate(-3.814697265625E-06, 0)">
                  <g transform="matrix(0.875000715255737, 0, 0, 0.875000715255737, 0, 0)">
                    <g transform="translate(1.9073486328125E-06, 3.11279297449119E-07)">
                      <g transform="matrix(1.14285314083099, 0, 0, 1.14285314083099, 0, 0)">
                        <g transform="translate(0, 9.5367431640625E-07)">
                          <g transform="translate(0, 9.5367431640625E-07)">
                            <g transform="translate(-1.9073486328125E-06, -9.5367431640625E-07)">
                              <g transform="matrix(0.875000715255737, 0, 0, 0.875000715255737, 0, 0)">
                                <g transform="translate(0, 2.21862793026162E-06)">
                                  <g transform="matrix(1.14285719394684, 0, 0, 1.14285719394684, 0, 0)">
                                    <g transform="translate(1.9073486328125E-06, 9.5367431640625E-07)">
                                      <g transform="matrix(0.875000715255737, 0, 0, 0.875000715255737, 0, 0)">
                                        <g transform="translate(0, -6.42395018957131E-07)">
                                          <g transform="matrix(1.14285719394684, 0, 0, 1.14285719394684, 0, 0)">
                                            <g transform="translate(-1.9073486328125E-06, 0)">
                                              <g transform="matrix(0.875000715255737, 0, 0, 0.875000715255737, 0, 0)">
                                                <g transform="translate(3.814697265625E-06, 2.21862793026162E-06)">
                                                  <g transform="matrix(1.14285719394684, 0, 0, 1.14285719394684, 0, 0)">
                                                    <g transform="translate(2, -2)">
                                                      <g id="Layer_1" transform="translate(-9, -3) rotate(90, 16, 19)" style="enable-background:new 0 0 32 32">
                                                        <g id="BarChart">
                                                          <rect x="12" y="10" width="8" height="18" fill="#1177D7" class="Blue" />
                                                        </g>
                                                      </g>
                                                    </g>
                                                  </g>
                                                </g>
                                              </g>
                                            </g>
                                          </g>
                                        </g>
                                      </g>
                                    </g>
                                  </g>
                                </g>
                              </g>
                            </g>
                          </g>
                        </g>
                      </g>
                    </g>
                  </g>
                </g>
              </g>
            </g>
          </g>
        </g>
      </g>
    </g>
  </g>
  <g transform="translate(3.814697265625E-06, 6.22558594898237E-07)">
    <g transform="matrix(1.14285719394684, 0, 0, 1.14285719394684, 0, 0)">
      <g transform="translate(-1.9073486328125E-06, -1.9073486328125E-06)">
        <g transform="matrix(0.875000715255737, 0, 0, 0.875000715255737, 0, 0)">
          <g transform="translate(3.814697265625E-06, -4.66918944397321E-07)">
            <g transform="matrix(1.14285719394684, 0, 0, 1.14285719394684, 0, 0)">
              <g transform="translate(0, 0)">
                <g transform="translate(-3.814697265625E-06, 0)">
                  <g transform="matrix(0.875000715255737, 0, 0, 0.875000715255737, 0, 0)">
                    <g transform="translate(1.9073486328125E-06, -2.37426757720982E-06)">
                      <g transform="matrix(1.14285314083099, 0, 0, 1.14285314083099, 0, 0)">
                        <g transform="translate(0, 0)">
                          <g transform="translate(-3.814697265625E-06, 0)">
                            <g transform="translate(-1.9073486328125E-06, -8.17871093516942E-07)">
                              <g transform="matrix(0.875000715255737, 0, 0, 0.875000715255737, 0, 0)">
                                <g transform="translate(0, 6.22558594898237E-07)">
                                  <g transform="matrix(1.14285719394684, 0, 0, 1.14285719394684, 0, 0)">
                                    <g transform="translate(1.9073486328125E-06, 0)">
                                      <g transform="matrix(0.875000715255737, 0, 0, 0.875000715255737, 0, 0)">
                                        <g transform="translate(0, -1.28479003791426E-06)">
                                          <g transform="matrix(1.14285719394684, 0, 0, 1.14285719394684, 0, 0)">
                                            <g transform="translate(-1.9073486328125E-06, 0)">
                                              <g transform="matrix(0.875000715255737, 0, 0, 0.875000715255737, 0, 0)">
                                                <g transform="translate(7.62939453125E-06, -4.66918944397321E-07)">
                                                  <g transform="matrix(1.14285719394684, 0, 0, 1.14285719394684, 0, 0)">
                                                    <g transform="translate(2, -2)">
                                                      <g id="Layer_1" transform="translate(-16, 10) rotate(90, 26, 16)" style="enable-background:new 0 0 32 32">
                                                        <g id="BarChart">
                                                          <rect x="22" y="4" width="8" height="24" fill="#1177D7" class="Blue" />
                                                        </g>
                                                      </g>
                                                    </g>
                                                  </g>
                                                </g>
                                              </g>
                                            </g>
                                          </g>
                                        </g>
                                      </g>
                                    </g>
                                  </g>
                                </g>
                              </g>
                            </g>
                          </g>
                        </g>
                      </g>
                    </g>
                  </g>
                </g>
              </g>
            </g>
          </g>
        </g>
      </g>
    </g>
  </g>
  <g id="Layer_1" transform="translate(13.7143020629883, 1.19209289550781E-06)" style="enable-background:new 0 0 16 16">
    <g id="Settings">
      <path d="M16, 9L16, 7L13.5, 6.4C13.4, 6 13.2, 5.6 13, 5.2L14.5, 3.1L12.9, 1.5L10.8, 3C10.4, 2.8 10, 2.6 9.6, 2.5L9, 0L7, 0L6.4, 2.5C6, 2.6 5.6, 2.8 5.2, 3L3.2, 1.5L1.5, 3.2L3, 5.2C2.8, 5.6 2.6, 6 2.5, 6.4L0, 7L0, 9L2.5, 9.6C2.6, 10 2.8, 10.4 3, 10.8L1.5, 12.9L3.1, 14.5L5.2, 13C5.6, 13.2 6, 13.4 6.4, 13.5L7, 16L9, 16L9.6, 13.5C10, 13.4 10.4, 13.2 10.8, 13L12.9, 14.5L14.5, 12.9L13, 10.8C13.2, 10.4 13.4, 10 13.5, 9.6L16, 9z" fill="#1177D7" style="fill:#11D6C9" />
    </g>
  </g>
  <g id="Layer_1" transform="translate(13.7143020629883, 9.5367431640625E-07)" style="enable-background:new 0 0 16 16">
    <g id="Settings">
      <circle cx="8" cy="8" r="2" fill="#FFFFFF" class="White" />
    </g>
  </g>
</svg>